control_change channel=3 control=121 value=0 time=0
program_change channel=3 program=27 time=0
control_change channel=3 control=7 value=119 time=0
control_change channel=3 control=10 value=64 time=0
control_change channel=3 control=91 value=0 time=0
control_change channel=3 control=93 value=0 time=0
note_on channel=3 note=40 velocity=127 time=0
note_on channel=3 note=52 velocity=127 time=0
note_on channel=3 note=59 velocity=127 time=0
note_on channel=3 note=64 velocity=127 time=0
control_change channel=0 control=121 value=0 time=0
program_change channel=0 program=31 time=0
control_change channel=0 control=7 value=100 time=0
control_change channel=0 control=10 value=64 time=0
control_change channel=0 control=91 value=0 time=0
control_change channel=0 control=93 value=0 time=0
control_change channel=1 control=121 value=0 time=0
program_change channel=1 program=30 time=0
control_change channel=1 control=7 value=100 time=0
control_change channel=1 control=10 value=64 time=0
control_change channel=1 control=91 value=0 time=0
control_change channel=1 control=93 value=0 time=0
control_change channel=2 control=121 value=0 time=0
program_change channel=2 program=29 time=0
control_change channel=2 control=7 value=100 time=0
control_change channel=2 control=10 value=64 time=0
control_change channel=2 control=91 value=0 time=0
control_change channel=2 control=93 value=0 time=0
control_change channel=6 control=121 value=0 time=0
program_change channel=6 program=28 time=0
control_change channel=6 control=7 value=100 time=0
control_change channel=6 control=10 value=64 time=0
control_change channel=6 control=91 value=0 time=0
control_change channel=6 control=93 value=0 time=0
control_change channel=8 control=121 value=0 time=0
program_change channel=8 program=26 time=0
control_change channel=8 control=7 value=100 time=0
control_change channel=8 control=10 value=64 time=0
control_change channel=8 control=91 value=0 time=0
control_change channel=8 control=93 value=0 time=0
control_change channel=4 control=121 value=0 time=0
program_change channel=4 program=27 time=0
control_change channel=4 control=7 value=122 time=0
control_change channel=4 control=10 value=64 time=0
control_change channel=4 control=91 value=0 time=0
control_change channel=4 control=93 value=0 time=0
note_on channel=4 note=40 velocity=127 time=0
note_on channel=4 note=52 velocity=127 time=0
note_on channel=4 note=59 velocity=127 time=0
note_on channel=4 note=64 velocity=127 time=0
control_change channel=10 control=121 value=0 time=0
program_change channel=10 program=31 time=0
control_change channel=10 control=7 value=100 time=0
control_change channel=10 control=10 value=64 time=0
control_change channel=10 control=91 value=0 time=0
control_change channel=10 control=93 value=0 time=0
control_change channel=11 control=121 value=0 time=0
program_change channel=11 program=30 time=0
control_change channel=11 control=7 value=100 time=0
control_change channel=11 control=10 value=64 time=0
control_change channel=11 control=91 value=0 time=0
control_change channel=11 control=93 value=0 time=0
control_change channel=12 control=121 value=0 time=0
program_change channel=12 program=29 time=0
control_change channel=12 control=7 value=100 time=0
control_change channel=12 control=10 value=64 time=0
control_change channel=12 control=91 value=0 time=0
control_change channel=12 control=93 value=0 time=0
control_change channel=13 control=121 value=0 time=0
program_change channel=13 program=28 time=0
control_change channel=13 control=7 value=100 time=0
control_change channel=13 control=10 value=64 time=0
control_change channel=13 control=91 value=0 time=0
control_change channel=13 control=93 value=0 time=0
control_change channel=14 control=121 value=0 time=0
program_change channel=14 program=26 time=0
control_change channel=14 control=7 value=100 time=0
control_change channel=14 control=10 value=64 time=0
control_change channel=14 control=91 value=0 time=0
control_change channel=14 control=93 value=0 time=0
control_change channel=5 control=121 value=0 time=0
program_change channel=5 program=27 time=0
control_change channel=5 control=7 value=127 time=0
control_change channel=5 control=10 value=64 time=0
control_change channel=5 control=91 value=0 time=0
control_change channel=5 control=93 value=0 time=0
control_change channel=15 control=121 value=0 time=0
program_change channel=15 program=31 time=0
control_change channel=15 control=7 value=100 time=0
control_change channel=15 control=10 value=64 time=0
control_change channel=15 control=91 value=0 time=0
control_change channel=15 control=93 value=0 time=0
control_change channel=0 control=121 value=0 time=0
program_change channel=0 program=30 time=0
control_change channel=0 control=7 value=100 time=0
control_change channel=0 control=10 value=64 time=0
control_change channel=0 control=91 value=0 time=0
control_change channel=0 control=93 value=0 time=0
control_change channel=1 control=121 value=0 time=0
program_change channel=1 program=29 time=0
control_change channel=1 control=7 value=100 time=0
control_change channel=1 control=10 value=64 time=0
control_change channel=1 control=91 value=0 time=0
control_change channel=1 control=93 value=0 time=0
control_change channel=2 control=121 value=0 time=0
program_change channel=2 program=28 time=0
control_change channel=2 control=7 value=100 time=0
control_change channel=2 control=10 value=64 time=0
control_change channel=2 control=91 value=0 time=0
control_change channel=2 control=93 value=0 time=0
control_change channel=3 control=121 value=0 time=0
program_change channel=3 program=26 time=0
control_change channel=3 control=7 value=100 time=0
control_change channel=3 control=10 value=64 time=0
control_change channel=3 control=91 value=0 time=0
control_change channel=3 control=93 value=0 time=0
control_change channel=7 control=121 value=0 time=0
program_change channel=7 program=25 time=0
control_change channel=7 control=7 value=93 time=0
control_change channel=7 control=10 value=64 time=0
control_change channel=7 control=91 value=0 time=0
control_change channel=7 control=93 value=0 time=0
note_on channel=7 note=28 velocity=127 time=0
control_change channel=4 control=121 value=0 time=0
program_change channel=4 program=28 time=0
control_change channel=4 control=7 value=100 time=0
control_change channel=4 control=10 value=64 time=0
control_change channel=4 control=91 value=0 time=0
control_change channel=4 control=93 value=0 time=0
control_change channel=5 control=121 value=0 time=0
program_change channel=5 program=26 time=0
control_change channel=5 control=7 value=100 time=0
control_change channel=5 control=10 value=64 time=0
control_change channel=5 control=91 value=0 time=0
control_change channel=5 control=93 value=0 time=0
note_on channel=3 note=40 velocity=0 time=0.27215881875000003
note_on channel=3 note=52 velocity=0 time=0
note_on channel=3 note=59 velocity=0 time=0
note_on channel=3 note=64 velocity=0 time=0
note_on channel=4 note=40 velocity=0 time=0
note_on channel=4 note=52 velocity=0 time=0
note_on channel=4 note=59 velocity=0 time=0
note_on channel=4 note=64 velocity=0 time=0
note_on channel=7 note=28 velocity=0 time=0
note_on channel=3 note=50 velocity=127 time=0.8187491812500001
note_on channel=3 note=57 velocity=127 time=0
note_on channel=3 note=62 velocity=127 time=0
note_on channel=4 note=50 velocity=127 time=0
note_on channel=4 note=57 velocity=127 time=0
note_on channel=4 note=62 velocity=127 time=0
note_on channel=7 note=38 velocity=127 time=0
note_on channel=3 note=50 velocity=0 time=0.27215881875000003
note_on channel=3 note=57 velocity=0 time=0
note_on channel=3 note=62 velocity=0 time=0
note_on channel=4 note=50 velocity=0 time=0
note_on channel=4 note=57 velocity=0 time=0
note_on channel=4 note=62 velocity=0 time=0
note_on channel=7 note=38 velocity=0 time=0
note_on channel=3 note=50 velocity=127 time=0.00056818125
note_on channel=3 note=56 velocity=127 time=0
note_on channel=3 note=61 velocity=127 time=0
note_on channel=4 note=50 velocity=127 time=0
note_on channel=4 note=56 velocity=127 time=0
note_on channel=4 note=61 velocity=127 time=0
note_on channel=7 note=37 velocity=127 time=0
note_on channel=3 note=50 velocity=0 time=0.27215881875000003
note_on channel=3 note=56 velocity=0 time=0
note_on channel=3 note=61 velocity=0 time=0
note_on channel=4 note=50 velocity=0 time=0
note_on channel=4 note=56 velocity=0 time=0
note_on channel=4 note=61 velocity=0 time=0
note_on channel=7 note=37 velocity=0 time=0
note_on channel=3 note=48 velocity=127 time=0.00056818125
note_on channel=3 note=55 velocity=127 time=0
note_on channel=3 note=60 velocity=127 time=0
note_on channel=3 note=64 velocity=127 time=0
note_on channel=4 note=48 velocity=127 time=0
note_on channel=4 note=55 velocity=127 time=0
note_on channel=4 note=60 velocity=127 time=0
note_on channel=4 note=64 velocity=127 time=0
note_on channel=7 note=36 velocity=127 time=0
note_on channel=3 note=48 velocity=0 time=1.3630668187500001
note_on channel=3 note=55 velocity=0 time=0
note_on channel=3 note=60 velocity=0 time=0
note_on channel=3 note=64 velocity=0 time=0
note_on channel=4 note=48 velocity=0 time=0.272727
note_on channel=4 note=55 velocity=0 time=0
note_on channel=4 note=60 velocity=0 time=0
note_on channel=4 note=64 velocity=0 time=0
note_on channel=7 note=36 velocity=0 time=0
note_on channel=3 note=40 velocity=127 time=0.00056818125
note_on channel=4 note=40 velocity=127 time=0
note_on channel=7 note=28 velocity=127 time=0
note_on channel=3 note=40 velocity=0 time=0.13579531875
note_on channel=4 note=40 velocity=0 time=0
note_on channel=3 note=40 velocity=127 time=0.00056818125
note_on channel=4 note=40 velocity=127 time=0
note_on channel=3 note=40 velocity=0 time=0.13579531875
note_on channel=4 note=40 velocity=0 time=0
note_on channel=7 note=28 velocity=0 time=0
note_on channel=3 note=52 velocity=127 time=0.00056818125
note_on channel=4 note=52 velocity=127 time=0
note_on channel=3 note=52 velocity=0 time=0.13579531875
note_on channel=4 note=52 velocity=0 time=0
note_on channel=3 note=40 velocity=127 time=0.00056818125
note_on channel=4 note=40 velocity=127 time=0
note_on channel=3 note=40 velocity=0 time=0.13579531875
note_on channel=4 note=40 velocity=0 time=0
note_on channel=3 note=40 velocity=127 time=0.00056818125
note_on channel=4 note=40 velocity=127 time=0
note_on channel=3 note=40 velocity=0 time=0.13579531875
note_on channel=4 note=40 velocity=0 time=0
note_on channel=3 note=51 velocity=127 time=0.00056818125
note_on channel=4 note=51 velocity=127 time=0
note_on channel=3 note=51 velocity=0 time=0.13579531875
note_on channel=4 note=51 velocity=0 time=0
note_on channel=3 note=40 velocity=127 time=0.00056818125
note_on channel=4 note=40 velocity=127 time=0
note_on channel=3 note=40 velocity=0 time=0.13579531875
note_on channel=4 note=40 velocity=0 time=0
note_on channel=3 note=40 velocity=127 time=0.00056818125
note_on channel=4 note=40 velocity=127 time=0
note_on channel=3 note=40 velocity=0 time=0.13579531875
note_on channel=4 note=40 velocity=0 time=0
note_on channel=3 note=50 velocity=127 time=0.00056818125
note_on channel=3 note=57 velocity=127 time=0
note_on channel=3 note=62 velocity=127 time=0
note_on channel=3 note=66 velocity=127 time=0
note_on channel=4 note=50 velocity=127 time=0
note_on channel=4 note=57 velocity=127 time=0
note_on channel=4 note=62 velocity=127 time=0
note_on channel=4 note=66 velocity=127 time=0
note_on channel=3 note=50 velocity=0 time=0.27215881875000003
note_on channel=3 note=57 velocity=0 time=0
note_on channel=3 note=62 velocity=0 time=0
note_on channel=3 note=66 velocity=0 time=0
note_on channel=4 note=50 velocity=0 time=0
note_on channel=4 note=57 velocity=0 time=0
note_on channel=4 note=62 velocity=0 time=0
note_on channel=4 note=66 velocity=0 time=0
note_on channel=3 note=49 velocity=127 time=0.00056818125
note_on channel=3 note=56 velocity=127 time=0
note_on channel=3 note=61 velocity=127 time=0
note_on channel=3 note=65 velocity=127 time=0
note_on channel=4 note=49 velocity=127 time=0
note_on channel=4 note=56 velocity=127 time=0
note_on channel=4 note=61 velocity=127 time=0
note_on channel=4 note=65 velocity=127 time=0
note_on channel=3 note=49 velocity=0 time=0.27215881875000003
note_on channel=3 note=56 velocity=0 time=0
note_on channel=3 note=61 velocity=0 time=0
note_on channel=3 note=65 velocity=0 time=0
note_on channel=4 note=49 velocity=0 time=0
note_on channel=4 note=56 velocity=0 time=0
note_on channel=4 note=61 velocity=0 time=0
note_on channel=4 note=65 velocity=0 time=0
note_on channel=3 note=48 velocity=127 time=0.00056818125
note_on channel=3 note=55 velocity=127 time=0
note_on channel=3 note=60 velocity=127 time=0
note_on channel=3 note=64 velocity=127 time=0
note_on channel=4 note=48 velocity=127 time=0
note_on channel=4 note=55 velocity=127 time=0
note_on channel=4 note=60 velocity=127 time=0
note_on channel=4 note=64 velocity=127 time=0
note_on channel=3 note=48 velocity=0 time=0.5448858187500001
note_on channel=3 note=55 velocity=0 time=0
note_on channel=3 note=60 velocity=0 time=0
note_on channel=3 note=64 velocity=0 time=0
note_on channel=4 note=48 velocity=0 time=0
note_on channel=4 note=55 velocity=0 time=0
note_on channel=4 note=60 velocity=0 time=0
note_on channel=4 note=64 velocity=0 time=0
note_on channel=3 note=40 velocity=127 time=0.00056818125
note_on channel=4 note=40 velocity=127 time=0
note_on channel=3 note=40 velocity=0 time=0.13579531875
note_on channel=4 note=40 velocity=0 time=0
note_on channel=3 note=40 velocity=127 time=0.00056818125
note_on channel=4 note=40 velocity=127 time=0
note_on channel=3 note=40 velocity=0 time=0.13579531875
note_on channel=4 note=40 velocity=0 time=0
note_on channel=3 note=47 velocity=127 time=0.00056818125
note_on channel=4 note=47 velocity=127 time=0
note_on channel=3 note=47 velocity=0 time=0.13579531875
note_on channel=4 note=47 velocity=0 time=0
note_on channel=3 note=40 velocity=127 time=0.00056818125
note_on channel=4 note=40 velocity=127 time=0
note_on channel=3 note=40 velocity=0 time=0.13579531875
note_on channel=4 note=40 velocity=0 time=0
note_on channel=3 note=40 velocity=127 time=0.00056818125
note_on channel=4 note=40 velocity=127 time=0
note_on channel=3 note=40 velocity=0 time=0.13579531875
note_on channel=4 note=40 velocity=0 time=0
note_on channel=3 note=46 velocity=127 time=0.00056818125
note_on channel=4 note=46 velocity=127 time=0
note_on channel=3 note=46 velocity=0 time=0.13579531875
note_on channel=4 note=46 velocity=0 time=0
note_on channel=3 note=40 velocity=127 time=0.00056818125
note_on channel=4 note=40 velocity=127 time=0
note_on channel=3 note=40 velocity=0 time=0.13579531875
note_on channel=4 note=40 velocity=0 time=0
note_on channel=3 note=40 velocity=127 time=0.00056818125
note_on channel=4 note=40 velocity=127 time=0
note_on channel=3 note=40 velocity=0 time=0.13579531875
note_on channel=4 note=40 velocity=0 time=0
note_on channel=3 note=45 velocity=127 time=0.00056818125
note_on channel=4 note=45 velocity=127 time=0
note_on channel=3 note=45 velocity=0 time=0.13579531875
note_on channel=4 note=45 velocity=0 time=0
note_on channel=3 note=40 velocity=127 time=0.00056818125
note_on channel=4 note=40 velocity=127 time=0
note_on channel=3 note=40 velocity=0 time=0.13579531875
note_on channel=4 note=40 velocity=0 time=0
note_on channel=3 note=44 velocity=127 time=0.00056818125
note_on channel=4 note=44 velocity=127 time=0
note_on channel=3 note=44 velocity=0 time=0.13579531875
note_on channel=4 note=44 velocity=0 time=0
note_on channel=3 note=40 velocity=127 time=0.00056818125
note_on channel=4 note=40 velocity=127 time=0
note_on channel=3 note=40 velocity=0 time=0.13579531875
note_on channel=4 note=40 velocity=0 time=0
note_on channel=3 note=43 velocity=127 time=0.00056818125
note_on channel=4 note=43 velocity=127 time=0
note_on channel=3 note=43 velocity=0 time=0.13579531875
note_on channel=4 note=43 velocity=0 time=0
note_on channel=3 note=40 velocity=127 time=0.00056818125
note_on channel=4 note=40 velocity=127 time=0
note_on channel=3 note=40 velocity=0 time=0.13579531875
note_on channel=4 note=40 velocity=0 time=0
note_on channel=3 note=42 velocity=127 time=0.00056818125
note_on channel=4 note=42 velocity=127 time=0
note_on channel=7 note=29 velocity=127 time=0
note_on channel=3 note=42 velocity=0 time=0.13579531875
note_on channel=4 note=42 velocity=0 time=0
note_on channel=3 note=40 velocity=127 time=0.00056818125
note_on channel=4 note=40 velocity=127 time=0
note_on channel=3 note=40 velocity=0 time=0.13579531875
note_on channel=4 note=40 velocity=0 time=0
note_on channel=7 note=29 velocity=0 time=0
note_on channel=3 note=40 velocity=127 time=0.00056818125
note_on channel=4 note=40 velocity=127 time=0
note_on channel=7 note=28 velocity=127 time=0
note_on channel=3 note=40 velocity=0 time=0.13579531875
note_on channel=4 note=40 velocity=0 time=0
note_on channel=3 note=40 velocity=127 time=0.00056818125
note_on channel=4 note=40 velocity=127 time=0
note_on channel=3 note=40 velocity=0 time=0.13579531875
note_on channel=4 note=40 velocity=0 time=0
note_on channel=7 note=28 velocity=0 time=0
note_on channel=3 note=52 velocity=127 time=0.00056818125
note_on channel=4 note=52 velocity=127 time=0
note_on channel=3 note=52 velocity=0 time=0.13579531875
note_on channel=4 note=52 velocity=0 time=0
note_on channel=3 note=40 velocity=127 time=0.00056818125
note_on channel=4 note=40 velocity=127 time=0
note_on channel=3 note=40 velocity=0 time=0.13579531875
note_on channel=4 note=40 velocity=0 time=0
note_on channel=3 note=40 velocity=127 time=0.00056818125
note_on channel=4 note=40 velocity=127 time=0
note_on channel=3 note=40 velocity=0 time=0.13579531875
note_on channel=4 note=40 velocity=0 time=0
note_on channel=3 note=51 velocity=127 time=0.00056818125
note_on channel=4 note=51 velocity=127 time=0
note_on channel=3 note=51 velocity=0 time=0.13579531875
note_on channel=4 note=51 velocity=0 time=0
note_on channel=3 note=40 velocity=127 time=0.00056818125
note_on channel=4 note=40 velocity=127 time=0
note_on channel=3 note=40 velocity=0 time=0.13579531875
note_on channel=4 note=40 velocity=0 time=0
note_on channel=3 note=40 velocity=127 time=0.00056818125
note_on channel=4 note=40 velocity=127 time=0
note_on channel=3 note=40 velocity=0 time=0.13579531875
note_on channel=4 note=40 velocity=0 time=0
note_on channel=3 note=50 velocity=127 time=0.00056818125
note_on channel=3 note=57 velocity=127 time=0
note_on channel=3 note=62 velocity=127 time=0
note_on channel=3 note=66 velocity=127 time=0
note_on channel=4 note=50 velocity=127 time=0
note_on channel=4 note=57 velocity=127 time=0
note_on channel=4 note=62 velocity=127 time=0
note_on channel=4 note=66 velocity=127 time=0
note_on channel=7 note=38 velocity=127 time=0
note_on channel=3 note=50 velocity=0 time=0.27215881875000003
note_on channel=3 note=57 velocity=0 time=0
note_on channel=3 note=62 velocity=0 time=0
note_on channel=3 note=66 velocity=0 time=0
note_on channel=4 note=50 velocity=0 time=0
note_on channel=4 note=57 velocity=0 time=0
note_on channel=4 note=62 velocity=0 time=0
note_on channel=4 note=66 velocity=0 time=0
note_on channel=7 note=38 velocity=0 time=0
note_on channel=3 note=49 velocity=127 time=0.00056818125
note_on channel=3 note=56 velocity=127 time=0
note_on channel=3 note=61 velocity=127 time=0
note_on channel=3 note=65 velocity=127 time=0
note_on channel=4 note=49 velocity=127 time=0
note_on channel=4 note=56 velocity=127 time=0
note_on channel=4 note=61 velocity=127 time=0
note_on channel=4 note=65 velocity=127 time=0
note_on channel=7 note=37 velocity=127 time=0
note_on channel=3 note=49 velocity=0 time=0.27215881875000003
note_on channel=3 note=56 velocity=0 time=0
note_on channel=3 note=61 velocity=0 time=0
note_on channel=3 note=65 velocity=0 time=0
note_on channel=4 note=49 velocity=0 time=0
note_on channel=4 note=56 velocity=0 time=0
note_on channel=4 note=61 velocity=0 time=0
note_on channel=4 note=65 velocity=0 time=0
note_on channel=7 note=37 velocity=0 time=0
note_on channel=3 note=48 velocity=127 time=0.00056818125
note_on channel=3 note=55 velocity=127 time=0
note_on channel=3 note=60 velocity=127 time=0
note_on channel=3 note=64 velocity=127 time=0
note_on channel=4 note=48 velocity=127 time=0
note_on channel=4 note=55 velocity=127 time=0
note_on channel=4 note=60 velocity=127 time=0
note_on channel=4 note=64 velocity=127 time=0
note_on channel=7 note=36 velocity=127 time=0
note_on channel=3 note=48 velocity=0 time=0.5448858187500001
note_on channel=3 note=55 velocity=0 time=0
note_on channel=3 note=60 velocity=0 time=0
note_on channel=3 note=64 velocity=0 time=0
note_on channel=4 note=48 velocity=0 time=0
note_on channel=4 note=55 velocity=0 time=0
note_on channel=4 note=60 velocity=0 time=0
note_on channel=4 note=64 velocity=0 time=0
note_on channel=7 note=36 velocity=0 time=0
note_on channel=3 note=40 velocity=127 time=0.00056818125
note_on channel=4 note=40 velocity=127 time=0
note_on channel=3 note=40 velocity=0 time=0.13579531875
note_on channel=4 note=40 velocity=0 time=0
note_on channel=3 note=40 velocity=127 time=0.00056818125
note_on channel=4 note=40 velocity=127 time=0
note_on channel=3 note=40 velocity=0 time=0.13579531875
note_on channel=4 note=40 velocity=0 time=0
note_on channel=3 note=47 velocity=127 time=0.00056818125
note_on channel=4 note=47 velocity=127 time=0
note_on channel=3 note=47 velocity=0 time=0.13579531875
note_on channel=4 note=47 velocity=0 time=0
note_on channel=3 note=40 velocity=127 time=0.00056818125
note_on channel=4 note=40 velocity=127 time=0
note_on channel=3 note=40 velocity=0 time=0.13579531875
note_on channel=4 note=40 velocity=0 time=0
note_on channel=3 note=40 velocity=127 time=0.00056818125
note_on channel=4 note=40 velocity=127 time=0
note_on channel=3 note=40 velocity=0 time=0.13579531875
note_on channel=4 note=40 velocity=0 time=0
note_on channel=3 note=46 velocity=127 time=0.00056818125
note_on channel=4 note=46 velocity=127 time=0
note_on channel=3 note=46 velocity=0 time=0.13579531875
note_on channel=4 note=46 velocity=0 time=0
note_on channel=3 note=40 velocity=127 time=0.00056818125
note_on channel=4 note=40 velocity=127 time=0
note_on channel=3 note=40 velocity=0 time=0.13579531875
note_on channel=4 note=40 velocity=0 time=0
note_on channel=3 note=40 velocity=127 time=0.00056818125
note_on channel=4 note=40 velocity=127 time=0
note_on channel=3 note=40 velocity=0 time=0.13579531875
note_on channel=4 note=40 velocity=0 time=0
note_on channel=3 note=45 velocity=127 time=0.00056818125
note_on channel=4 note=45 velocity=127 time=0
note_on channel=3 note=45 velocity=0 time=0.13579531875
note_on channel=4 note=45 velocity=0 time=0
note_on channel=3 note=40 velocity=127 time=0.00056818125
note_on channel=4 note=40 velocity=127 time=0
note_on channel=3 note=40 velocity=0 time=0.13579531875
note_on channel=4 note=40 velocity=0 time=0
note_on channel=3 note=44 velocity=127 time=0.00056818125
note_on channel=4 note=44 velocity=127 time=0
note_on channel=3 note=44 velocity=0 time=0.13579531875
note_on channel=4 note=44 velocity=0 time=0
note_on channel=3 note=40 velocity=127 time=0.00056818125
note_on channel=4 note=40 velocity=127 time=0
note_on channel=3 note=40 velocity=0 time=0.13579531875
note_on channel=4 note=40 velocity=0 time=0
note_on channel=3 note=43 velocity=127 time=0.00056818125
note_on channel=4 note=43 velocity=127 time=0
note_on channel=3 note=43 velocity=0 time=0.13579531875
note_on channel=4 note=43 velocity=0 time=0
note_on channel=3 note=40 velocity=127 time=0.00056818125
note_on channel=4 note=40 velocity=127 time=0
note_on channel=3 note=40 velocity=0 time=0.13579531875
note_on channel=4 note=40 velocity=0 time=0
note_on channel=3 note=42 velocity=127 time=0.00056818125
note_on channel=4 note=42 velocity=127 time=0
note_on channel=7 note=29 velocity=127 time=0
note_on channel=3 note=42 velocity=0 time=0.13579531875
note_on channel=4 note=42 velocity=0 time=0
note_on channel=3 note=40 velocity=127 time=0.00056818125
note_on channel=4 note=40 velocity=127 time=0
note_on channel=3 note=40 velocity=0 time=0.13579531875
note_on channel=4 note=40 velocity=0 time=0
note_on channel=7 note=29 velocity=0 time=0
note_on channel=3 note=40 velocity=127 time=0.00056818125
note_on channel=4 note=40 velocity=127 time=0
note_on channel=7 note=28 velocity=127 time=0
note_on channel=3 note=40 velocity=0 time=0.13579531875
note_on channel=4 note=40 velocity=0 time=0
note_on channel=3 note=40 velocity=127 time=0.00056818125
note_on channel=4 note=40 velocity=127 time=0
note_on channel=3 note=40 velocity=0 time=0.13579531875
note_on channel=4 note=40 velocity=0 time=0
note_on channel=7 note=28 velocity=0 time=0
note_on channel=3 note=52 velocity=127 time=0.00056818125
note_on channel=4 note=52 velocity=127 time=0
note_on channel=3 note=52 velocity=0 time=0.13579531875
note_on channel=4 note=52 velocity=0 time=0
note_on channel=3 note=40 velocity=127 time=0.00056818125
note_on channel=4 note=40 velocity=127 time=0
note_on channel=3 note=40 velocity=0 time=0.13579531875
note_on channel=4 note=40 velocity=0 time=0
note_on channel=3 note=40 velocity=127 time=0.00056818125
note_on channel=4 note=40 velocity=127 time=0
note_on channel=3 note=40 velocity=0 time=0.13579531875
note_on channel=4 note=40 velocity=0 time=0
note_on channel=3 note=51 velocity=127 time=0.00056818125
note_on channel=4 note=51 velocity=127 time=0
note_on channel=3 note=51 velocity=0 time=0.13579531875
note_on channel=4 note=51 velocity=0 time=0
note_on channel=3 note=40 velocity=127 time=0.00056818125
note_on channel=4 note=40 velocity=127 time=0
note_on channel=3 note=40 velocity=0 time=0.13579531875
note_on channel=4 note=40 velocity=0 time=0
note_on channel=3 note=40 velocity=127 time=0.00056818125
note_on channel=4 note=40 velocity=127 time=0
note_on channel=3 note=40 velocity=0 time=0.13579531875
note_on channel=4 note=40 velocity=0 time=0
note_on channel=3 note=50 velocity=127 time=0.00056818125
note_on channel=3 note=57 velocity=127 time=0
note_on channel=3 note=62 velocity=127 time=0
note_on channel=3 note=66 velocity=127 time=0
note_on channel=4 note=50 velocity=127 time=0
note_on channel=4 note=57 velocity=127 time=0
note_on channel=4 note=62 velocity=127 time=0
note_on channel=4 note=66 velocity=127 time=0
note_on channel=7 note=38 velocity=127 time=0
note_on channel=3 note=50 velocity=0 time=0.27215881875000003
note_on channel=3 note=57 velocity=0 time=0
note_on channel=3 note=62 velocity=0 time=0
note_on channel=3 note=66 velocity=0 time=0
note_on channel=4 note=50 velocity=0 time=0
note_on channel=4 note=57 velocity=0 time=0
note_on channel=4 note=62 velocity=0 time=0
note_on channel=4 note=66 velocity=0 time=0
note_on channel=7 note=38 velocity=0 time=0
note_on channel=3 note=49 velocity=127 time=0.00056818125
note_on channel=3 note=56 velocity=127 time=0
note_on channel=3 note=61 velocity=127 time=0
note_on channel=3 note=65 velocity=127 time=0
note_on channel=4 note=49 velocity=127 time=0
note_on channel=4 note=56 velocity=127 time=0
note_on channel=4 note=61 velocity=127 time=0
note_on channel=4 note=65 velocity=127 time=0
note_on channel=7 note=37 velocity=127 time=0
note_on channel=3 note=49 velocity=0 time=0.27215881875000003
note_on channel=3 note=56 velocity=0 time=0
note_on channel=3 note=61 velocity=0 time=0
note_on channel=3 note=65 velocity=0 time=0
note_on channel=4 note=49 velocity=0 time=0
note_on channel=4 note=56 velocity=0 time=0
note_on channel=4 note=61 velocity=0 time=0
note_on channel=4 note=65 velocity=0 time=0
note_on channel=7 note=37 velocity=0 time=0
note_on channel=3 note=48 velocity=127 time=0.00056818125
note_on channel=3 note=55 velocity=127 time=0
note_on channel=3 note=60 velocity=127 time=0
note_on channel=3 note=64 velocity=127 time=0
note_on channel=4 note=48 velocity=127 time=0
note_on channel=4 note=55 velocity=127 time=0
note_on channel=4 note=60 velocity=127 time=0
note_on channel=4 note=64 velocity=127 time=0
note_on channel=7 note=36 velocity=127 time=0
note_on channel=3 note=48 velocity=0 time=0.5448858187500001
note_on channel=3 note=55 velocity=0 time=0
note_on channel=3 note=60 velocity=0 time=0
note_on channel=3 note=64 velocity=0 time=0
note_on channel=4 note=48 velocity=0 time=0
note_on channel=4 note=55 velocity=0 time=0
note_on channel=4 note=60 velocity=0 time=0
note_on channel=4 note=64 velocity=0 time=0
note_on channel=7 note=36 velocity=0 time=0
note_on channel=3 note=40 velocity=127 time=0.00056818125
note_on channel=4 note=40 velocity=127 time=0
note_on channel=3 note=40 velocity=0 time=0.13579531875
note_on channel=4 note=40 velocity=0 time=0
note_on channel=3 note=40 velocity=127 time=0.00056818125
note_on channel=4 note=40 velocity=127 time=0
note_on channel=3 note=40 velocity=0 time=0.13579531875
note_on channel=4 note=40 velocity=0 time=0
note_on channel=3 note=47 velocity=127 time=0.00056818125
note_on channel=4 note=47 velocity=127 time=0
note_on channel=3 note=47 velocity=0 time=0.13579531875
note_on channel=4 note=47 velocity=0 time=0
note_on channel=3 note=40 velocity=127 time=0.00056818125
note_on channel=4 note=40 velocity=127 time=0
note_on channel=3 note=40 velocity=0 time=0.13579531875
note_on channel=4 note=40 velocity=0 time=0
note_on channel=3 note=40 velocity=127 time=0.00056818125
note_on channel=4 note=40 velocity=127 time=0
note_on channel=3 note=40 velocity=0 time=0.13579531875
note_on channel=4 note=40 velocity=0 time=0
note_on channel=3 note=46 velocity=127 time=0.00056818125
note_on channel=4 note=46 velocity=127 time=0
note_on channel=3 note=46 velocity=0 time=0.13579531875
note_on channel=4 note=46 velocity=0 time=0
note_on channel=3 note=40 velocity=127 time=0.00056818125
note_on channel=4 note=40 velocity=127 time=0
note_on channel=3 note=40 velocity=0 time=0.13579531875
note_on channel=4 note=40 velocity=0 time=0
note_on channel=3 note=40 velocity=127 time=0.00056818125
note_on channel=4 note=40 velocity=127 time=0
note_on channel=3 note=40 velocity=0 time=0.13579531875
note_on channel=4 note=40 velocity=0 time=0
note_on channel=3 note=45 velocity=127 time=0.00056818125
note_on channel=4 note=45 velocity=127 time=0
note_on channel=3 note=45 velocity=0 time=0.13579531875
note_on channel=4 note=45 velocity=0 time=0
note_on channel=3 note=40 velocity=127 time=0.00056818125
note_on channel=4 note=40 velocity=127 time=0
note_on channel=3 note=40 velocity=0 time=0.13579531875
note_on channel=4 note=40 velocity=0 time=0
note_on channel=3 note=44 velocity=127 time=0.00056818125
note_on channel=4 note=44 velocity=127 time=0
note_on channel=3 note=44 velocity=0 time=0.13579531875
note_on channel=4 note=44 velocity=0 time=0
note_on channel=3 note=40 velocity=127 time=0.00056818125
note_on channel=4 note=40 velocity=127 time=0
note_on channel=3 note=40 velocity=0 time=0.13579531875
note_on channel=4 note=40 velocity=0 time=0
note_on channel=3 note=43 velocity=127 time=0.00056818125
note_on channel=4 note=43 velocity=127 time=0
note_on channel=3 note=43 velocity=0 time=0.13579531875
note_on channel=4 note=43 velocity=0 time=0
note_on channel=3 note=40 velocity=127 time=0.00056818125
note_on channel=4 note=40 velocity=127 time=0
note_on channel=3 note=40 velocity=0 time=0.13579531875
note_on channel=4 note=40 velocity=0 time=0
note_on channel=3 note=42 velocity=127 time=0.00056818125
note_on channel=4 note=42 velocity=127 time=0
note_on channel=7 note=29 velocity=127 time=0
note_on channel=3 note=42 velocity=0 time=0.13579531875
note_on channel=4 note=42 velocity=0 time=0
note_on channel=3 note=40 velocity=127 time=0.00056818125
note_on channel=4 note=40 velocity=127 time=0
note_on channel=3 note=40 velocity=0 time=0.13579531875
note_on channel=4 note=40 velocity=0 time=0
note_on channel=7 note=29 velocity=0 time=0
note_on channel=3 note=40 velocity=127 time=0.00056818125
note_on channel=4 note=40 velocity=127 time=0
note_on channel=7 note=28 velocity=127 time=0
note_on channel=3 note=40 velocity=0 time=0.13579531875
note_on channel=4 note=40 velocity=0 time=0
note_on channel=3 note=40 velocity=127 time=0.00056818125
note_on channel=4 note=40 velocity=127 time=0
note_on channel=3 note=40 velocity=0 time=0.13579531875
note_on channel=4 note=40 velocity=0 time=0
note_on channel=7 note=28 velocity=0 time=0
note_on channel=3 note=52 velocity=127 time=0.00056818125
note_on channel=4 note=52 velocity=127 time=0
note_on channel=3 note=52 velocity=0 time=0.13579531875
note_on channel=4 note=52 velocity=0 time=0
note_on channel=3 note=40 velocity=127 time=0.00056818125
note_on channel=4 note=40 velocity=127 time=0
note_on channel=3 note=40 velocity=0 time=0.13579531875
note_on channel=4 note=40 velocity=0 time=0
note_on channel=3 note=40 velocity=127 time=0.00056818125
note_on channel=4 note=40 velocity=127 time=0
note_on channel=3 note=40 velocity=0 time=0.13579531875
note_on channel=4 note=40 velocity=0 time=0
note_on channel=3 note=51 velocity=127 time=0.00056818125
note_on channel=4 note=51 velocity=127 time=0
note_on channel=3 note=51 velocity=0 time=0.13579531875
note_on channel=4 note=51 velocity=0 time=0
note_on channel=3 note=40 velocity=127 time=0.00056818125
note_on channel=4 note=40 velocity=127 time=0
note_on channel=3 note=40 velocity=0 time=0.13579531875
note_on channel=4 note=40 velocity=0 time=0
note_on channel=3 note=40 velocity=127 time=0.00056818125
note_on channel=4 note=40 velocity=127 time=0
note_on channel=3 note=40 velocity=0 time=0.13579531875
note_on channel=4 note=40 velocity=0 time=0
note_on channel=3 note=50 velocity=127 time=0.00056818125
note_on channel=3 note=57 velocity=127 time=0
note_on channel=3 note=62 velocity=127 time=0
note_on channel=3 note=66 velocity=127 time=0
note_on channel=4 note=50 velocity=127 time=0
note_on channel=4 note=57 velocity=127 time=0
note_on channel=4 note=62 velocity=127 time=0
note_on channel=4 note=66 velocity=127 time=0
note_on channel=7 note=38 velocity=127 time=0
note_on channel=3 note=50 velocity=0 time=0.27215881875000003
note_on channel=3 note=57 velocity=0 time=0
note_on channel=3 note=62 velocity=0 time=0
note_on channel=3 note=66 velocity=0 time=0
note_on channel=4 note=50 velocity=0 time=0
note_on channel=4 note=57 velocity=0 time=0
note_on channel=4 note=62 velocity=0 time=0
note_on channel=4 note=66 velocity=0 time=0
note_on channel=7 note=38 velocity=0 time=0
note_on channel=3 note=49 velocity=127 time=0.00056818125
note_on channel=3 note=56 velocity=127 time=0
note_on channel=3 note=61 velocity=127 time=0
note_on channel=3 note=65 velocity=127 time=0
note_on channel=4 note=49 velocity=127 time=0
note_on channel=4 note=56 velocity=127 time=0
note_on channel=4 note=61 velocity=127 time=0
note_on channel=4 note=65 velocity=127 time=0
note_on channel=7 note=37 velocity=127 time=0
note_on channel=3 note=49 velocity=0 time=0.27215881875000003
note_on channel=3 note=56 velocity=0 time=0
note_on channel=3 note=61 velocity=0 time=0
note_on channel=3 note=65 velocity=0 time=0
note_on channel=4 note=49 velocity=0 time=0
note_on channel=4 note=56 velocity=0 time=0
note_on channel=4 note=61 velocity=0 time=0
note_on channel=4 note=65 velocity=0 time=0
note_on channel=7 note=37 velocity=0 time=0
note_on channel=3 note=48 velocity=127 time=0.00056818125
note_on channel=3 note=55 velocity=127 time=0
note_on channel=3 note=60 velocity=127 time=0
note_on channel=3 note=64 velocity=127 time=0
note_on channel=4 note=48 velocity=127 time=0
note_on channel=4 note=55 velocity=127 time=0
note_on channel=4 note=60 velocity=127 time=0
note_on channel=4 note=64 velocity=127 time=0
note_on channel=7 note=36 velocity=127 time=0
note_on channel=3 note=48 velocity=0 time=0.5448858187500001
note_on channel=3 note=55 velocity=0 time=0
note_on channel=3 note=60 velocity=0 time=0
note_on channel=3 note=64 velocity=0 time=0
note_on channel=4 note=48 velocity=0 time=0
note_on channel=4 note=55 velocity=0 time=0
note_on channel=4 note=60 velocity=0 time=0
note_on channel=4 note=64 velocity=0 time=0
note_on channel=7 note=36 velocity=0 time=0
note_on channel=3 note=40 velocity=127 time=0.00056818125
note_on channel=4 note=40 velocity=127 time=0
note_on channel=3 note=40 velocity=0 time=0.13579531875
note_on channel=4 note=40 velocity=0 time=0
note_on channel=3 note=40 velocity=127 time=0.00056818125
note_on channel=4 note=40 velocity=127 time=0
note_on channel=3 note=40 velocity=0 time=0.13579531875
note_on channel=4 note=40 velocity=0 time=0
note_on channel=3 note=47 velocity=127 time=0.00056818125
note_on channel=4 note=47 velocity=127 time=0
note_on channel=7 note=36 velocity=127 time=0
note_on channel=3 note=47 velocity=0 time=0.13579531875
note_on channel=4 note=47 velocity=0 time=0
note_on channel=7 note=36 velocity=0 time=0
note_on channel=3 note=40 velocity=127 time=0.00056818125
note_on channel=4 note=40 velocity=127 time=0
note_on channel=7 note=36 velocity=127 time=0
note_on channel=3 note=40 velocity=0 time=0.13579531875
note_on channel=4 note=40 velocity=0 time=0
note_on channel=7 note=36 velocity=0 time=0
note_on channel=3 note=40 velocity=127 time=0.00056818125
note_on channel=4 note=40 velocity=127 time=0
note_on channel=7 note=36 velocity=127 time=0
note_on channel=3 note=40 velocity=0 time=0.13579531875
note_on channel=4 note=40 velocity=0 time=0
note_on channel=7 note=36 velocity=0 time=0
note_on channel=3 note=46 velocity=127 time=0.00056818125
note_on channel=4 note=46 velocity=127 time=0
note_on channel=7 note=36 velocity=127 time=0
note_on channel=3 note=46 velocity=0 time=0.13579531875
note_on channel=4 note=46 velocity=0 time=0
note_on channel=7 note=36 velocity=0 time=0
note_on channel=3 note=40 velocity=127 time=0.00056818125
note_on channel=4 note=40 velocity=127 time=0
note_on channel=7 note=36 velocity=127 time=0
note_on channel=3 note=40 velocity=0 time=0.13579531875
note_on channel=4 note=40 velocity=0 time=0
note_on channel=7 note=36 velocity=0 time=0
note_on channel=3 note=40 velocity=127 time=0.00056818125
note_on channel=4 note=40 velocity=127 time=0
note_on channel=7 note=36 velocity=127 time=0
note_on channel=3 note=40 velocity=0 time=0.13579531875
note_on channel=4 note=40 velocity=0 time=0
note_on channel=7 note=36 velocity=0 time=0
note_on channel=3 note=45 velocity=127 time=0.00056818125
note_on channel=4 note=45 velocity=127 time=0
note_on channel=7 note=36 velocity=127 time=0
note_on channel=3 note=45 velocity=0 time=0.13579531875
note_on channel=4 note=45 velocity=0 time=0
note_on channel=7 note=36 velocity=0 time=0
note_on channel=3 note=40 velocity=127 time=0.00056818125
note_on channel=4 note=40 velocity=127 time=0
note_on channel=7 note=36 velocity=127 time=0
note_on channel=3 note=40 velocity=0 time=0.13579531875
note_on channel=4 note=40 velocity=0 time=0
note_on channel=7 note=36 velocity=0 time=0
note_on channel=3 note=44 velocity=127 time=0.00056818125
note_on channel=4 note=44 velocity=127 time=0
note_on channel=7 note=36 velocity=127 time=0
note_on channel=3 note=44 velocity=0 time=0.13579531875
note_on channel=4 note=44 velocity=0 time=0
note_on channel=7 note=36 velocity=0 time=0
note_on channel=3 note=40 velocity=127 time=0.00056818125
note_on channel=4 note=40 velocity=127 time=0
note_on channel=7 note=36 velocity=127 time=0
note_on channel=3 note=40 velocity=0 time=0.13579531875
note_on channel=4 note=40 velocity=0 time=0
note_on channel=7 note=36 velocity=0 time=0
note_on channel=3 note=43 velocity=127 time=0.00056818125
note_on channel=4 note=43 velocity=127 time=0
note_on channel=7 note=36 velocity=127 time=0
note_on channel=3 note=43 velocity=0 time=0.13579531875
note_on channel=4 note=43 velocity=0 time=0
note_on channel=7 note=36 velocity=0 time=0
note_on channel=3 note=40 velocity=127 time=0.00056818125
note_on channel=4 note=40 velocity=127 time=0
note_on channel=7 note=36 velocity=127 time=0
note_on channel=3 note=40 velocity=0 time=0.13579531875
note_on channel=4 note=40 velocity=0 time=0
note_on channel=7 note=36 velocity=0 time=0
note_on channel=3 note=42 velocity=127 time=0.00056818125
note_on channel=4 note=42 velocity=127 time=0
note_on channel=7 note=36 velocity=127 time=0
note_on channel=3 note=42 velocity=0 time=0.13579531875
note_on channel=4 note=42 velocity=0 time=0
note_on channel=7 note=36 velocity=0 time=0
note_on channel=3 note=40 velocity=127 time=0.00056818125
note_on channel=4 note=40 velocity=127 time=0
note_on channel=7 note=36 velocity=127 time=0
note_on channel=3 note=40 velocity=0 time=0.13579531875
note_on channel=4 note=40 velocity=0 time=0
note_on channel=7 note=36 velocity=0 time=0
note_on channel=3 note=40 velocity=127 time=0.00056818125
note_on channel=4 note=40 velocity=127 time=0
note_on channel=7 note=28 velocity=127 time=0
note_on channel=3 note=40 velocity=0 time=0.13579531875
note_on channel=4 note=40 velocity=0 time=0
note_on channel=3 note=41 velocity=127 time=0.00056818125
note_on channel=4 note=41 velocity=127 time=0
note_on channel=3 note=41 velocity=0 time=0.13579531875
note_on channel=4 note=41 velocity=0 time=0
note_on channel=7 note=28 velocity=0 time=0
note_on channel=3 note=47 velocity=127 time=0.00056818125
note_on channel=4 note=47 velocity=127 time=0
note_on channel=3 note=47 velocity=0 time=0.13579531875
note_on channel=4 note=47 velocity=0 time=0
note_on channel=3 note=40 velocity=127 time=0.00056818125
note_on channel=4 note=40 velocity=127 time=0
note_on channel=3 note=40 velocity=0 time=0.13579531875
note_on channel=4 note=40 velocity=0 time=0
note_on channel=3 note=41 velocity=127 time=0.00056818125
note_on channel=4 note=41 velocity=127 time=0
note_on channel=3 note=41 velocity=0 time=0.13579531875
note_on channel=4 note=41 velocity=0 time=0
note_on channel=3 note=48 velocity=127 time=0.00056818125
note_on channel=4 note=48 velocity=127 time=0
note_on channel=3 note=48 velocity=0 time=0.13579531875
note_on channel=4 note=48 velocity=0 time=0
note_on channel=3 note=40 velocity=127 time=0.00056818125
note_on channel=4 note=40 velocity=127 time=0
note_on channel=3 note=40 velocity=0 time=0.13579531875
note_on channel=4 note=40 velocity=0 time=0
note_on channel=3 note=41 velocity=127 time=0.00056818125
note_on channel=4 note=41 velocity=127 time=0
note_on channel=3 note=41 velocity=0 time=0.13579531875
note_on channel=4 note=41 velocity=0 time=0
note_on channel=3 note=49 velocity=127 time=0.00056818125
note_on channel=4 note=49 velocity=127 time=0
note_on channel=3 note=49 velocity=0 time=0.13579531875
note_on channel=4 note=49 velocity=0 time=0
note_on channel=3 note=40 velocity=127 time=0.00056818125
note_on channel=4 note=40 velocity=127 time=0
note_on channel=3 note=40 velocity=0 time=0.13579531875
note_on channel=4 note=40 velocity=0 time=0
note_on channel=3 note=41 velocity=127 time=0.00056818125
note_on channel=4 note=41 velocity=127 time=0
note_on channel=3 note=41 velocity=0 time=0.13579531875
note_on channel=4 note=41 velocity=0 time=0
note_on channel=3 note=48 velocity=127 time=0.00056818125
note_on channel=4 note=48 velocity=127 time=0
note_on channel=3 note=48 velocity=0 time=0.13579531875
note_on channel=4 note=48 velocity=0 time=0
note_on channel=3 note=40 velocity=127 time=0.00056818125
note_on channel=4 note=40 velocity=127 time=0
note_on channel=3 note=40 velocity=0 time=0.13579531875
note_on channel=4 note=40 velocity=0 time=0
note_on channel=3 note=41 velocity=127 time=0.00056818125
note_on channel=4 note=41 velocity=127 time=0
note_on channel=3 note=41 velocity=0 time=0.13579531875
note_on channel=4 note=41 velocity=0 time=0
note_on channel=3 note=47 velocity=127 time=0.00056818125
note_on channel=4 note=47 velocity=127 time=0
note_on channel=3 note=47 velocity=0 time=0.13579531875
note_on channel=4 note=47 velocity=0 time=0
note_on channel=3 note=47 velocity=127 time=0.00056818125
note_on channel=4 note=47 velocity=127 time=0
note_on channel=3 note=47 velocity=0 time=0.13579531875
note_on channel=4 note=47 velocity=0 time=0
note_on channel=3 note=40 velocity=127 time=0.00056818125
note_on channel=4 note=40 velocity=127 time=0
note_on channel=3 note=40 velocity=0 time=0.13579531875
note_on channel=4 note=40 velocity=0 time=0
note_on channel=3 note=41 velocity=127 time=0.00056818125
note_on channel=4 note=41 velocity=127 time=0
note_on channel=3 note=41 velocity=0 time=0.13579531875
note_on channel=4 note=41 velocity=0 time=0
note_on channel=3 note=47 velocity=127 time=0.00056818125
note_on channel=4 note=47 velocity=127 time=0
note_on channel=3 note=47 velocity=0 time=0.13579531875
note_on channel=4 note=47 velocity=0 time=0
note_on channel=3 note=40 velocity=127 time=0.00056818125
note_on channel=4 note=40 velocity=127 time=0
note_on channel=3 note=40 velocity=0 time=0.13579531875
note_on channel=4 note=40 velocity=0 time=0
note_on channel=3 note=41 velocity=127 time=0.00056818125
note_on channel=4 note=41 velocity=127 time=0
note_on channel=3 note=41 velocity=0 time=0.13579531875
note_on channel=4 note=41 velocity=0 time=0
note_on channel=3 note=48 velocity=127 time=0.00056818125
note_on channel=4 note=48 velocity=127 time=0
note_on channel=3 note=48 velocity=0 time=0.13579531875
note_on channel=4 note=48 velocity=0 time=0
note_on channel=3 note=41 velocity=127 time=0.00056818125
note_on channel=4 note=41 velocity=127 time=0
note_on channel=3 note=41 velocity=0 time=0.13579531875
note_on channel=4 note=41 velocity=0 time=0
note_on channel=3 note=40 velocity=127 time=0.00056818125
note_on channel=4 note=40 velocity=127 time=0
note_on channel=3 note=40 velocity=0 time=0.13579531875
note_on channel=4 note=40 velocity=0 time=0
note_on channel=3 note=43 velocity=127 time=0.00056818125
note_on channel=3 note=50 velocity=127 time=0
note_on channel=4 note=43 velocity=127 time=0
note_on channel=4 note=50 velocity=127 time=0
note_on channel=7 note=31 velocity=127 time=0
note_on channel=3 note=43 velocity=0 time=0.13579531875
note_on channel=3 note=50 velocity=0 time=0
note_on channel=4 note=43 velocity=0 time=0
note_on channel=4 note=50 velocity=0 time=0
note_on channel=7 note=31 velocity=0 time=0
note_on channel=3 note=42 velocity=127 time=0.00056818125
note_on channel=3 note=49 velocity=127 time=0
note_on channel=4 note=42 velocity=127 time=0
note_on channel=4 note=49 velocity=127 time=0
note_on channel=7 note=30 velocity=127 time=0
note_on channel=3 note=42 velocity=0 time=0.13579531875
note_on channel=3 note=49 velocity=0 time=0
note_on channel=4 note=42 velocity=0 time=0
note_on channel=4 note=49 velocity=0 time=0
note_on channel=7 note=30 velocity=0 time=0
note_on channel=3 note=40 velocity=127 time=0.00056818125
note_on channel=4 note=40 velocity=127 time=0
note_on channel=7 note=28 velocity=127 time=0
note_on channel=3 note=40 velocity=0 time=0.13579531875
note_on channel=4 note=40 velocity=0 time=0
note_on channel=7 note=28 velocity=0 time=0
note_on channel=3 note=43 velocity=127 time=0.00056818125
note_on channel=3 note=50 velocity=127 time=0
note_on channel=4 note=43 velocity=127 time=0
note_on channel=4 note=50 velocity=127 time=0
note_on channel=7 note=31 velocity=127 time=0
note_on channel=3 note=43 velocity=0 time=0.13579531875
note_on channel=3 note=50 velocity=0 time=0
note_on channel=4 note=43 velocity=0 time=0
note_on channel=4 note=50 velocity=0 time=0
note_on channel=7 note=31 velocity=0 time=0
note_on channel=3 note=42 velocity=127 time=0.00056818125
note_on channel=3 note=49 velocity=127 time=0
note_on channel=4 note=42 velocity=127 time=0
note_on channel=4 note=49 velocity=127 time=0
note_on channel=7 note=30 velocity=127 time=0
note_on channel=3 note=42 velocity=0 time=0.13579531875
note_on channel=3 note=49 velocity=0 time=0
note_on channel=4 note=42 velocity=0 time=0
note_on channel=4 note=49 velocity=0 time=0
note_on channel=7 note=30 velocity=0 time=0
note_on channel=3 note=40 velocity=127 time=0.00056818125
note_on channel=4 note=40 velocity=127 time=0
note_on channel=7 note=28 velocity=127 time=0
note_on channel=3 note=40 velocity=0 time=0.13579531875
note_on channel=4 note=40 velocity=0 time=0
note_on channel=7 note=28 velocity=0 time=0
note_on channel=3 note=43 velocity=127 time=0.00056818125
note_on channel=3 note=50 velocity=127 time=0
note_on channel=4 note=43 velocity=127 time=0
note_on channel=4 note=50 velocity=127 time=0
note_on channel=7 note=31 velocity=127 time=0
note_on channel=3 note=43 velocity=0 time=0.13579531875
note_on channel=3 note=50 velocity=0 time=0
note_on channel=4 note=43 velocity=0 time=0
note_on channel=4 note=50 velocity=0 time=0
note_on channel=7 note=31 velocity=0 time=0
note_on channel=3 note=42 velocity=127 time=0.00056818125
note_on channel=3 note=49 velocity=127 time=0
note_on channel=4 note=42 velocity=127 time=0
note_on channel=4 note=49 velocity=127 time=0
note_on channel=7 note=30 velocity=127 time=0
note_on channel=3 note=42 velocity=0 time=0.13579531875
note_on channel=3 note=49 velocity=0 time=0
note_on channel=4 note=42 velocity=0 time=0
note_on channel=4 note=49 velocity=0 time=0
note_on channel=7 note=30 velocity=0 time=0
note_on channel=3 note=40 velocity=127 time=0.00056818125
note_on channel=4 note=40 velocity=127 time=0
note_on channel=7 note=28 velocity=127 time=0
note_on channel=3 note=40 velocity=0 time=0.13579531875
note_on channel=4 note=40 velocity=0 time=0
note_on channel=3 note=41 velocity=127 time=0.00056818125
note_on channel=4 note=41 velocity=127 time=0
note_on channel=3 note=41 velocity=0 time=0.13579531875
note_on channel=4 note=41 velocity=0 time=0
note_on channel=7 note=28 velocity=0 time=0
note_on channel=3 note=47 velocity=127 time=0.00056818125
note_on channel=4 note=47 velocity=127 time=0
note_on channel=3 note=47 velocity=0 time=0.13579531875
note_on channel=4 note=47 velocity=0 time=0
note_on channel=3 note=40 velocity=127 time=0.00056818125
note_on channel=4 note=40 velocity=127 time=0
note_on channel=3 note=40 velocity=0 time=0.13579531875
note_on channel=4 note=40 velocity=0 time=0
note_on channel=3 note=41 velocity=127 time=0.00056818125
note_on channel=4 note=41 velocity=127 time=0
note_on channel=3 note=41 velocity=0 time=0.13579531875
note_on channel=4 note=41 velocity=0 time=0
note_on channel=3 note=48 velocity=127 time=0.00056818125
note_on channel=4 note=48 velocity=127 time=0
note_on channel=3 note=48 velocity=0 time=0.13579531875
note_on channel=4 note=48 velocity=0 time=0
note_on channel=3 note=40 velocity=127 time=0.00056818125
note_on channel=4 note=40 velocity=127 time=0
note_on channel=3 note=40 velocity=0 time=0.13579531875
note_on channel=4 note=40 velocity=0 time=0
note_on channel=3 note=41 velocity=127 time=0.00056818125
note_on channel=4 note=41 velocity=127 time=0
note_on channel=3 note=41 velocity=0 time=0.13579531875
note_on channel=4 note=41 velocity=0 time=0
note_on channel=3 note=49 velocity=127 time=0.00056818125
note_on channel=4 note=49 velocity=127 time=0
note_on channel=3 note=49 velocity=0 time=0.13579531875
note_on channel=4 note=49 velocity=0 time=0
note_on channel=3 note=40 velocity=127 time=0.00056818125
note_on channel=4 note=40 velocity=127 time=0
note_on channel=3 note=40 velocity=0 time=0.13579531875
note_on channel=4 note=40 velocity=0 time=0
note_on channel=3 note=41 velocity=127 time=0.00056818125
note_on channel=4 note=41 velocity=127 time=0
note_on channel=3 note=41 velocity=0 time=0.13579531875
note_on channel=4 note=41 velocity=0 time=0
note_on channel=3 note=48 velocity=127 time=0.00056818125
note_on channel=4 note=48 velocity=127 time=0
note_on channel=3 note=48 velocity=0 time=0.13579531875
note_on channel=4 note=48 velocity=0 time=0
note_on channel=3 note=40 velocity=127 time=0.00056818125
note_on channel=4 note=40 velocity=127 time=0
note_on channel=3 note=40 velocity=0 time=0.13579531875
note_on channel=4 note=40 velocity=0 time=0
note_on channel=3 note=41 velocity=127 time=0.00056818125
note_on channel=4 note=41 velocity=127 time=0
note_on channel=3 note=41 velocity=0 time=0.13579531875
note_on channel=4 note=41 velocity=0 time=0
note_on channel=3 note=47 velocity=127 time=0.00056818125
note_on channel=4 note=47 velocity=127 time=0
note_on channel=3 note=47 velocity=0 time=0.13579531875
note_on channel=4 note=47 velocity=0 time=0
note_on channel=3 note=47 velocity=127 time=0.00056818125
note_on channel=4 note=47 velocity=127 time=0
note_on channel=3 note=47 velocity=0 time=0.13579531875
note_on channel=4 note=47 velocity=0 time=0
note_on channel=3 note=40 velocity=127 time=0.00056818125
note_on channel=4 note=40 velocity=127 time=0
note_on channel=3 note=40 velocity=0 time=0.13579531875
note_on channel=4 note=40 velocity=0 time=0
note_on channel=3 note=41 velocity=127 time=0.00056818125
note_on channel=4 note=41 velocity=127 time=0
note_on channel=3 note=41 velocity=0 time=0.13579531875
note_on channel=4 note=41 velocity=0 time=0
note_on channel=3 note=47 velocity=127 time=0.00056818125
note_on channel=4 note=47 velocity=127 time=0
note_on channel=3 note=47 velocity=0 time=0.13579531875
note_on channel=4 note=47 velocity=0 time=0
note_on channel=3 note=40 velocity=127 time=0.00056818125
note_on channel=4 note=40 velocity=127 time=0
note_on channel=3 note=40 velocity=0 time=0.13579531875
note_on channel=4 note=40 velocity=0 time=0
note_on channel=3 note=41 velocity=127 time=0.00056818125
note_on channel=4 note=41 velocity=127 time=0
note_on channel=3 note=41 velocity=0 time=0.13579531875
note_on channel=4 note=41 velocity=0 time=0
note_on channel=3 note=48 velocity=127 time=0.00056818125
note_on channel=4 note=48 velocity=127 time=0
note_on channel=3 note=48 velocity=0 time=0.13579531875
note_on channel=4 note=48 velocity=0 time=0
note_on channel=3 note=41 velocity=127 time=0.00056818125
note_on channel=4 note=41 velocity=127 time=0
note_on channel=3 note=41 velocity=0 time=0.13579531875
note_on channel=4 note=41 velocity=0 time=0
note_on channel=3 note=40 velocity=127 time=0.00056818125
note_on channel=4 note=40 velocity=127 time=0
note_on channel=3 note=40 velocity=0 time=0.13579531875
note_on channel=4 note=40 velocity=0 time=0
note_on channel=3 note=43 velocity=127 time=0.00056818125
note_on channel=3 note=50 velocity=127 time=0
note_on channel=4 note=43 velocity=127 time=0
note_on channel=4 note=50 velocity=127 time=0
note_on channel=7 note=31 velocity=127 time=0
note_on channel=3 note=43 velocity=0 time=0.13579531875
note_on channel=3 note=50 velocity=0 time=0
note_on channel=4 note=43 velocity=0 time=0
note_on channel=4 note=50 velocity=0 time=0
note_on channel=7 note=31 velocity=0 time=0
note_on channel=3 note=42 velocity=127 time=0.00056818125
note_on channel=3 note=49 velocity=127 time=0
note_on channel=4 note=42 velocity=127 time=0
note_on channel=4 note=49 velocity=127 time=0
note_on channel=7 note=30 velocity=127 time=0
note_on channel=3 note=42 velocity=0 time=0.13579531875
note_on channel=3 note=49 velocity=0 time=0
note_on channel=4 note=42 velocity=0 time=0
note_on channel=4 note=49 velocity=0 time=0
note_on channel=7 note=30 velocity=0 time=0
note_on channel=3 note=40 velocity=127 time=0.00056818125
note_on channel=4 note=40 velocity=127 time=0
note_on channel=7 note=28 velocity=127 time=0
note_on channel=3 note=40 velocity=0 time=0.13579531875
note_on channel=4 note=40 velocity=0 time=0
note_on channel=7 note=28 velocity=0 time=0
note_on channel=3 note=43 velocity=127 time=0.00056818125
note_on channel=3 note=50 velocity=127 time=0
note_on channel=4 note=43 velocity=127 time=0
note_on channel=4 note=50 velocity=127 time=0
note_on channel=7 note=31 velocity=127 time=0
note_on channel=3 note=43 velocity=0 time=0.13579531875
note_on channel=3 note=50 velocity=0 time=0
note_on channel=4 note=43 velocity=0 time=0
note_on channel=4 note=50 velocity=0 time=0
note_on channel=7 note=31 velocity=0 time=0
note_on channel=3 note=42 velocity=127 time=0.00056818125
note_on channel=3 note=49 velocity=127 time=0
note_on channel=4 note=42 velocity=127 time=0
note_on channel=4 note=49 velocity=127 time=0
note_on channel=7 note=30 velocity=127 time=0
note_on channel=3 note=42 velocity=0 time=0.13579531875
note_on channel=3 note=49 velocity=0 time=0
note_on channel=4 note=42 velocity=0 time=0
note_on channel=4 note=49 velocity=0 time=0
note_on channel=7 note=30 velocity=0 time=0
note_on channel=3 note=40 velocity=127 time=0.00056818125
note_on channel=4 note=40 velocity=127 time=0
note_on channel=7 note=28 velocity=127 time=0
note_on channel=3 note=40 velocity=0 time=0.13579531875
note_on channel=4 note=40 velocity=0 time=0
note_on channel=7 note=28 velocity=0 time=0
note_on channel=3 note=43 velocity=127 time=0.00056818125
note_on channel=3 note=50 velocity=127 time=0
note_on channel=4 note=43 velocity=127 time=0
note_on channel=4 note=50 velocity=127 time=0
note_on channel=7 note=31 velocity=127 time=0
note_on channel=3 note=43 velocity=0 time=0.13579531875
note_on channel=3 note=50 velocity=0 time=0
note_on channel=4 note=43 velocity=0 time=0
note_on channel=4 note=50 velocity=0 time=0
note_on channel=7 note=31 velocity=0 time=0
note_on channel=3 note=42 velocity=127 time=0.00056818125
note_on channel=3 note=49 velocity=127 time=0
note_on channel=4 note=42 velocity=127 time=0
note_on channel=4 note=49 velocity=127 time=0
note_on channel=7 note=30 velocity=127 time=0
note_on channel=3 note=42 velocity=0 time=0.13579531875
note_on channel=3 note=49 velocity=0 time=0
note_on channel=4 note=42 velocity=0 time=0
note_on channel=4 note=49 velocity=0 time=0
note_on channel=7 note=30 velocity=0 time=0
note_on channel=3 note=40 velocity=127 time=0.00056818125
note_on channel=4 note=40 velocity=127 time=0
note_on channel=7 note=28 velocity=127 time=0
note_on channel=3 note=40 velocity=0 time=0.13579531875
note_on channel=4 note=40 velocity=0 time=0
note_on channel=7 note=28 velocity=0 time=0
note_on channel=3 note=41 velocity=127 time=0.00056818125
note_on channel=4 note=41 velocity=127 time=0
note_on channel=7 note=29 velocity=127 time=0
note_on channel=3 note=41 velocity=0 time=0.13579531875
note_on channel=4 note=41 velocity=0 time=0
note_on channel=7 note=29 velocity=0 time=0
note_on channel=3 note=47 velocity=127 time=0.00056818125
note_on channel=4 note=47 velocity=127 time=0
note_on channel=7 note=35 velocity=127 time=0
note_on channel=3 note=47 velocity=0 time=0.13579531875
note_on channel=4 note=47 velocity=0 time=0
note_on channel=7 note=35 velocity=0 time=0
note_on channel=3 note=40 velocity=127 time=0.00056818125
note_on channel=4 note=40 velocity=127 time=0
note_on channel=7 note=28 velocity=127 time=0
note_on channel=3 note=40 velocity=0 time=0.13579531875
note_on channel=4 note=40 velocity=0 time=0
note_on channel=7 note=28 velocity=0 time=0
note_on channel=3 note=41 velocity=127 time=0.00056818125
note_on channel=4 note=41 velocity=127 time=0
note_on channel=7 note=29 velocity=127 time=0
note_on channel=3 note=41 velocity=0 time=0.13579531875
note_on channel=4 note=41 velocity=0 time=0
note_on channel=7 note=29 velocity=0 time=0
note_on channel=3 note=48 velocity=127 time=0.00056818125
note_on channel=4 note=48 velocity=127 time=0
note_on channel=7 note=36 velocity=127 time=0
note_on channel=3 note=48 velocity=0 time=0.13579531875
note_on channel=4 note=48 velocity=0 time=0
note_on channel=7 note=36 velocity=0 time=0
note_on channel=3 note=40 velocity=127 time=0.00056818125
note_on channel=4 note=40 velocity=127 time=0
note_on channel=7 note=28 velocity=127 time=0
note_on channel=3 note=40 velocity=0 time=0.13579531875
note_on channel=4 note=40 velocity=0 time=0
note_on channel=7 note=28 velocity=0 time=0
note_on channel=3 note=41 velocity=127 time=0.00056818125
note_on channel=4 note=41 velocity=127 time=0
note_on channel=7 note=29 velocity=127 time=0
note_on channel=3 note=41 velocity=0 time=0.13579531875
note_on channel=4 note=41 velocity=0 time=0
note_on channel=7 note=29 velocity=0 time=0
note_on channel=3 note=48 velocity=127 time=0.00056818125
note_on channel=4 note=48 velocity=127 time=0
note_on channel=7 note=37 velocity=127 time=0
note_on channel=3 note=48 velocity=0 time=0.13579531875
note_on channel=4 note=48 velocity=0 time=0
note_on channel=7 note=37 velocity=0 time=0
note_on channel=3 note=40 velocity=127 time=0.00056818125
note_on channel=4 note=40 velocity=127 time=0
note_on channel=7 note=28 velocity=127 time=0
note_on channel=3 note=40 velocity=0 time=0.13579531875
note_on channel=4 note=40 velocity=0 time=0
note_on channel=7 note=28 velocity=0 time=0
note_on channel=3 note=41 velocity=127 time=0.00056818125
note_on channel=4 note=41 velocity=127 time=0
note_on channel=7 note=29 velocity=127 time=0
note_on channel=3 note=41 velocity=0 time=0.13579531875
note_on channel=4 note=41 velocity=0 time=0
note_on channel=7 note=29 velocity=0 time=0
note_on channel=3 note=48 velocity=127 time=0.00056818125
note_on channel=4 note=48 velocity=127 time=0
note_on channel=7 note=36 velocity=127 time=0
note_on channel=3 note=48 velocity=0 time=0.13579531875
note_on channel=4 note=48 velocity=0 time=0
note_on channel=7 note=36 velocity=0 time=0
note_on channel=3 note=40 velocity=127 time=0.00056818125
note_on channel=4 note=40 velocity=127 time=0
note_on channel=7 note=28 velocity=127 time=0
note_on channel=3 note=40 velocity=0 time=0.13579531875
note_on channel=4 note=40 velocity=0 time=0
note_on channel=7 note=28 velocity=0 time=0
note_on channel=3 note=41 velocity=127 time=0.00056818125
note_on channel=4 note=41 velocity=127 time=0
note_on channel=7 note=29 velocity=127 time=0
note_on channel=3 note=41 velocity=0 time=0.13579531875
note_on channel=4 note=41 velocity=0 time=0
note_on channel=7 note=29 velocity=0 time=0
note_on channel=3 note=47 velocity=127 time=0.00056818125
note_on channel=4 note=47 velocity=127 time=0
note_on channel=7 note=35 velocity=127 time=0
note_on channel=3 note=47 velocity=0 time=0.13579531875
note_on channel=4 note=47 velocity=0 time=0
note_on channel=7 note=35 velocity=0 time=0
note_on channel=7 note=35 velocity=127 time=0.00056818125
note_on channel=7 note=35 velocity=0 time=0.13579531875
note_on channel=3 note=40 velocity=127 time=0.00056818125
note_on channel=4 note=40 velocity=127 time=0
note_on channel=7 note=28 velocity=127 time=0
note_on channel=3 note=40 velocity=0 time=0.13579531875
note_on channel=4 note=40 velocity=0 time=0
note_on channel=7 note=28 velocity=0 time=0
note_on channel=3 note=41 velocity=127 time=0.00056818125
note_on channel=4 note=41 velocity=127 time=0
note_on channel=7 note=29 velocity=127 time=0
note_on channel=3 note=41 velocity=0 time=0.13579531875
note_on channel=4 note=41 velocity=0 time=0
note_on channel=7 note=29 velocity=0 time=0
note_on channel=3 note=47 velocity=127 time=0.00056818125
note_on channel=4 note=47 velocity=127 time=0
note_on channel=7 note=35 velocity=127 time=0
note_on channel=3 note=47 velocity=0 time=0.13579531875
note_on channel=4 note=47 velocity=0 time=0
note_on channel=7 note=35 velocity=0 time=0
note_on channel=3 note=40 velocity=127 time=0.00056818125
note_on channel=4 note=40 velocity=127 time=0
note_on channel=7 note=28 velocity=127 time=0
note_on channel=3 note=40 velocity=0 time=0.13579531875
note_on channel=4 note=40 velocity=0 time=0
note_on channel=7 note=28 velocity=0 time=0
note_on channel=3 note=41 velocity=127 time=0.00056818125
note_on channel=4 note=41 velocity=127 time=0
note_on channel=7 note=29 velocity=127 time=0
note_on channel=3 note=41 velocity=0 time=0.13579531875
note_on channel=4 note=41 velocity=0 time=0
note_on channel=7 note=29 velocity=0 time=0
note_on channel=3 note=48 velocity=127 time=0.00056818125
note_on channel=4 note=48 velocity=127 time=0
note_on channel=7 note=36 velocity=127 time=0
note_on channel=3 note=48 velocity=0 time=0.13579531875
note_on channel=4 note=48 velocity=0 time=0
note_on channel=7 note=36 velocity=0 time=0
note_on channel=3 note=40 velocity=127 time=0.00056818125
note_on channel=4 note=40 velocity=127 time=0
note_on channel=7 note=28 velocity=127 time=0
note_on channel=3 note=40 velocity=0 time=0.13579531875
note_on channel=4 note=40 velocity=0 time=0
note_on channel=7 note=28 velocity=0 time=0
note_on channel=3 note=41 velocity=127 time=0.00056818125
note_on channel=4 note=41 velocity=127 time=0
note_on channel=7 note=29 velocity=127 time=0
note_on channel=3 note=41 velocity=0 time=0.13579531875
note_on channel=4 note=41 velocity=0 time=0
note_on channel=7 note=29 velocity=0 time=0
note_on channel=3 note=48 velocity=127 time=0.00056818125
note_on channel=4 note=48 velocity=127 time=0
note_on channel=7 note=37 velocity=127 time=0
note_on channel=3 note=48 velocity=0 time=0.13579531875
note_on channel=4 note=48 velocity=0 time=0
note_on channel=7 note=37 velocity=0 time=0
note_on channel=3 note=40 velocity=127 time=0.00056818125
note_on channel=4 note=40 velocity=127 time=0
note_on channel=7 note=28 velocity=127 time=0
note_on channel=3 note=40 velocity=0 time=0.13579531875
note_on channel=4 note=40 velocity=0 time=0
note_on channel=7 note=28 velocity=0 time=0
note_on channel=3 note=41 velocity=127 time=0.00056818125
note_on channel=4 note=41 velocity=127 time=0
note_on channel=7 note=29 velocity=127 time=0
note_on channel=3 note=41 velocity=0 time=0.13579531875
note_on channel=4 note=41 velocity=0 time=0
note_on channel=7 note=29 velocity=0 time=0
note_on channel=3 note=48 velocity=127 time=0.00056818125
note_on channel=4 note=48 velocity=127 time=0
note_on channel=7 note=36 velocity=127 time=0
note_on channel=3 note=48 velocity=0 time=0.13579531875
note_on channel=4 note=48 velocity=0 time=0
note_on channel=7 note=36 velocity=0 time=0
note_on channel=3 note=41 velocity=127 time=0.00056818125
note_on channel=4 note=41 velocity=127 time=0
note_on channel=7 note=29 velocity=127 time=0
note_on channel=3 note=41 velocity=0 time=0.13579531875
note_on channel=4 note=41 velocity=0 time=0
note_on channel=7 note=29 velocity=0 time=0
note_on channel=3 note=40 velocity=127 time=0.00056818125
note_on channel=4 note=40 velocity=127 time=0
note_on channel=7 note=28 velocity=127 time=0
note_on channel=3 note=40 velocity=0 time=0.13579531875
note_on channel=4 note=40 velocity=0 time=0
note_on channel=7 note=28 velocity=0 time=0
note_on channel=3 note=47 velocity=127 time=0.00056818125
note_on channel=3 note=54 velocity=127 time=0
note_on channel=3 note=59 velocity=127 time=0
note_on channel=4 note=47 velocity=127 time=0
note_on channel=4 note=54 velocity=127 time=0
note_on channel=4 note=59 velocity=127 time=0
note_on channel=7 note=35 velocity=127 time=0
note_on channel=3 note=47 velocity=0 time=0.27215881875000003
note_on channel=3 note=54 velocity=0 time=0
note_on channel=3 note=59 velocity=0 time=0
note_on channel=4 note=47 velocity=0 time=0
note_on channel=4 note=54 velocity=0 time=0
note_on channel=4 note=59 velocity=0 time=0
note_on channel=7 note=35 velocity=0 time=0
note_on channel=3 note=40 velocity=127 time=0.00056818125
note_on channel=4 note=40 velocity=127 time=0
note_on channel=7 note=28 velocity=127 time=0
note_on channel=3 note=40 velocity=0 time=0.13579531875
note_on channel=4 note=40 velocity=0 time=0
note_on channel=7 note=28 velocity=0 time=0
note_on channel=3 note=41 velocity=127 time=0.00056818125
note_on channel=4 note=41 velocity=127 time=0
note_on channel=7 note=29 velocity=127 time=0
note_on channel=3 note=41 velocity=0 time=0.13579531875
note_on channel=4 note=41 velocity=0 time=0
note_on channel=7 note=29 velocity=0 time=0
note_on channel=3 note=47 velocity=127 time=0.00056818125
note_on channel=4 note=47 velocity=127 time=0
note_on channel=7 note=35 velocity=127 time=0
note_on channel=3 note=47 velocity=0 time=0.13579531875
note_on channel=4 note=47 velocity=0 time=0
note_on channel=7 note=35 velocity=0 time=0
note_on channel=3 note=40 velocity=127 time=0.00056818125
note_on channel=4 note=40 velocity=127 time=0
note_on channel=7 note=28 velocity=127 time=0
note_on channel=3 note=40 velocity=0 time=0.13579531875
note_on channel=4 note=40 velocity=0 time=0
note_on channel=7 note=28 velocity=0 time=0
note_on channel=3 note=41 velocity=127 time=0.00056818125
note_on channel=4 note=41 velocity=127 time=0
note_on channel=7 note=29 velocity=127 time=0
note_on channel=3 note=41 velocity=0 time=0.13579531875
note_on channel=4 note=41 velocity=0 time=0
note_on channel=7 note=29 velocity=0 time=0
note_on channel=3 note=48 velocity=127 time=0.00056818125
note_on channel=4 note=48 velocity=127 time=0
note_on channel=7 note=36 velocity=127 time=0
note_on channel=3 note=48 velocity=0 time=0.13579531875
note_on channel=4 note=48 velocity=0 time=0
note_on channel=7 note=36 velocity=0 time=0
note_on channel=3 note=40 velocity=127 time=0.00056818125
note_on channel=4 note=40 velocity=127 time=0
note_on channel=7 note=28 velocity=127 time=0
note_on channel=3 note=40 velocity=0 time=0.13579531875
note_on channel=4 note=40 velocity=0 time=0
note_on channel=7 note=28 velocity=0 time=0
note_on channel=3 note=41 velocity=127 time=0.00056818125
note_on channel=4 note=41 velocity=127 time=0
note_on channel=7 note=29 velocity=127 time=0
note_on channel=3 note=41 velocity=0 time=0.13579531875
note_on channel=4 note=41 velocity=0 time=0
note_on channel=7 note=29 velocity=0 time=0
note_on channel=3 note=48 velocity=127 time=0.00056818125
note_on channel=4 note=48 velocity=127 time=0
note_on channel=7 note=37 velocity=127 time=0
note_on channel=3 note=48 velocity=0 time=0.13579531875
note_on channel=4 note=48 velocity=0 time=0
note_on channel=7 note=37 velocity=0 time=0
note_on channel=3 note=40 velocity=127 time=0.00056818125
note_on channel=4 note=40 velocity=127 time=0
note_on channel=7 note=28 velocity=127 time=0
note_on channel=3 note=40 velocity=0 time=0.13579531875
note_on channel=4 note=40 velocity=0 time=0
note_on channel=7 note=28 velocity=0 time=0
note_on channel=3 note=41 velocity=127 time=0.00056818125
note_on channel=4 note=41 velocity=127 time=0
note_on channel=7 note=29 velocity=127 time=0
note_on channel=3 note=41 velocity=0 time=0.13579531875
note_on channel=4 note=41 velocity=0 time=0
note_on channel=7 note=29 velocity=0 time=0
note_on channel=3 note=48 velocity=127 time=0.00056818125
note_on channel=4 note=48 velocity=127 time=0
note_on channel=7 note=36 velocity=127 time=0
note_on channel=3 note=48 velocity=0 time=0.13579531875
note_on channel=4 note=48 velocity=0 time=0
note_on channel=7 note=36 velocity=0 time=0
note_on channel=3 note=40 velocity=127 time=0.00056818125
note_on channel=4 note=40 velocity=127 time=0
note_on channel=7 note=28 velocity=127 time=0
note_on channel=3 note=40 velocity=0 time=0.13579531875
note_on channel=4 note=40 velocity=0 time=0
note_on channel=7 note=28 velocity=0 time=0
note_on channel=3 note=41 velocity=127 time=0.00056818125
note_on channel=4 note=41 velocity=127 time=0
note_on channel=7 note=29 velocity=127 time=0
note_on channel=3 note=41 velocity=0 time=0.13579531875
note_on channel=4 note=41 velocity=0 time=0
note_on channel=7 note=29 velocity=0 time=0
note_on channel=3 note=47 velocity=127 time=0.00056818125
note_on channel=4 note=47 velocity=127 time=0
note_on channel=7 note=35 velocity=127 time=0
note_on channel=3 note=47 velocity=0 time=0.13579531875
note_on channel=4 note=47 velocity=0 time=0
note_on channel=7 note=35 velocity=0 time=0
note_on channel=7 note=35 velocity=127 time=0.00056818125
note_on channel=7 note=35 velocity=0 time=0.13579531875
note_on channel=3 note=40 velocity=127 time=0.00056818125
note_on channel=4 note=40 velocity=127 time=0
note_on channel=7 note=28 velocity=127 time=0
note_on channel=3 note=40 velocity=0 time=0.13579531875
note_on channel=4 note=40 velocity=0 time=0
note_on channel=7 note=28 velocity=0 time=0
note_on channel=3 note=41 velocity=127 time=0.00056818125
note_on channel=4 note=41 velocity=127 time=0
note_on channel=7 note=29 velocity=127 time=0
note_on channel=3 note=41 velocity=0 time=0.13579531875
note_on channel=4 note=41 velocity=0 time=0
note_on channel=7 note=29 velocity=0 time=0
note_on channel=3 note=47 velocity=127 time=0.00056818125
note_on channel=4 note=47 velocity=127 time=0
note_on channel=7 note=35 velocity=127 time=0
note_on channel=3 note=47 velocity=0 time=0.13579531875
note_on channel=4 note=47 velocity=0 time=0
note_on channel=7 note=35 velocity=0 time=0
note_on channel=3 note=40 velocity=127 time=0.00056818125
note_on channel=4 note=40 velocity=127 time=0
note_on channel=7 note=28 velocity=127 time=0
note_on channel=3 note=40 velocity=0 time=0.13579531875
note_on channel=4 note=40 velocity=0 time=0
note_on channel=7 note=28 velocity=0 time=0
note_on channel=3 note=41 velocity=127 time=0.00056818125
note_on channel=4 note=41 velocity=127 time=0
note_on channel=7 note=29 velocity=127 time=0
note_on channel=3 note=41 velocity=0 time=0.13579531875
note_on channel=4 note=41 velocity=0 time=0
note_on channel=7 note=29 velocity=0 time=0
note_on channel=3 note=48 velocity=127 time=0.00056818125
note_on channel=4 note=48 velocity=127 time=0
note_on channel=7 note=36 velocity=127 time=0
note_on channel=3 note=48 velocity=0 time=0.13579531875
note_on channel=4 note=48 velocity=0 time=0
note_on channel=7 note=36 velocity=0 time=0
note_on channel=3 note=41 velocity=127 time=0.00056818125
note_on channel=4 note=41 velocity=127 time=0
note_on channel=7 note=29 velocity=127 time=0
note_on channel=3 note=41 velocity=0 time=0.13579531875
note_on channel=4 note=41 velocity=0 time=0
note_on channel=7 note=29 velocity=0 time=0
note_on channel=3 note=40 velocity=127 time=0.00056818125
note_on channel=4 note=40 velocity=127 time=0
note_on channel=7 note=28 velocity=127 time=0
note_on channel=3 note=40 velocity=0 time=0.13579531875
note_on channel=4 note=40 velocity=0 time=0
note_on channel=7 note=28 velocity=0 time=0
note_on channel=3 note=43 velocity=127 time=0.00056818125
note_on channel=3 note=50 velocity=127 time=0
note_on channel=4 note=43 velocity=127 time=0
note_on channel=4 note=50 velocity=127 time=0
note_on channel=7 note=31 velocity=127 time=0
note_on channel=3 note=43 velocity=0 time=0.13579531875
note_on channel=3 note=50 velocity=0 time=0
note_on channel=4 note=43 velocity=0 time=0
note_on channel=4 note=50 velocity=0 time=0
note_on channel=7 note=31 velocity=0 time=0
note_on channel=3 note=42 velocity=127 time=0.00056818125
note_on channel=3 note=49 velocity=127 time=0
note_on channel=4 note=42 velocity=127 time=0
note_on channel=4 note=49 velocity=127 time=0
note_on channel=7 note=30 velocity=127 time=0
note_on channel=3 note=42 velocity=0 time=0.13579531875
note_on channel=3 note=49 velocity=0 time=0
note_on channel=4 note=42 velocity=0 time=0
note_on channel=4 note=49 velocity=0 time=0
note_on channel=7 note=30 velocity=0 time=0
note_on channel=3 note=40 velocity=127 time=0.00056818125
note_on channel=4 note=40 velocity=127 time=0
note_on channel=7 note=28 velocity=127 time=0
note_on channel=3 note=40 velocity=0 time=0.13579531875
note_on channel=4 note=40 velocity=0 time=0
note_on channel=7 note=28 velocity=0 time=0
note_on channel=3 note=43 velocity=127 time=0.00056818125
note_on channel=3 note=50 velocity=127 time=0
note_on channel=4 note=43 velocity=127 time=0
note_on channel=4 note=50 velocity=127 time=0
note_on channel=7 note=31 velocity=127 time=0
note_on channel=3 note=43 velocity=0 time=0.13579531875
note_on channel=3 note=50 velocity=0 time=0
note_on channel=4 note=43 velocity=0 time=0
note_on channel=4 note=50 velocity=0 time=0
note_on channel=7 note=31 velocity=0 time=0
note_on channel=3 note=42 velocity=127 time=0.00056818125
note_on channel=3 note=49 velocity=127 time=0
note_on channel=4 note=42 velocity=127 time=0
note_on channel=4 note=49 velocity=127 time=0
note_on channel=7 note=30 velocity=127 time=0
note_on channel=3 note=42 velocity=0 time=0.13579531875
note_on channel=3 note=49 velocity=0 time=0
note_on channel=4 note=42 velocity=0 time=0
note_on channel=4 note=49 velocity=0 time=0
note_on channel=7 note=30 velocity=0 time=0
note_on channel=3 note=40 velocity=127 time=0.00056818125
note_on channel=4 note=40 velocity=127 time=0
note_on channel=7 note=28 velocity=127 time=0
note_on channel=3 note=40 velocity=0 time=0.13579531875
note_on channel=4 note=40 velocity=0 time=0
note_on channel=7 note=28 velocity=0 time=0
note_on channel=3 note=43 velocity=127 time=0.00056818125
note_on channel=3 note=50 velocity=127 time=0
note_on channel=4 note=43 velocity=127 time=0
note_on channel=4 note=50 velocity=127 time=0
note_on channel=7 note=31 velocity=127 time=0
note_on channel=3 note=43 velocity=0 time=0.13579531875
note_on channel=3 note=50 velocity=0 time=0
note_on channel=4 note=43 velocity=0 time=0
note_on channel=4 note=50 velocity=0 time=0
note_on channel=7 note=31 velocity=0 time=0
note_on channel=3 note=42 velocity=127 time=0.00056818125
note_on channel=3 note=49 velocity=127 time=0
note_on channel=4 note=42 velocity=127 time=0
note_on channel=4 note=49 velocity=127 time=0
note_on channel=7 note=30 velocity=127 time=0
note_on channel=3 note=42 velocity=0 time=0.13579531875
note_on channel=3 note=49 velocity=0 time=0
note_on channel=4 note=42 velocity=0 time=0
note_on channel=4 note=49 velocity=0 time=0
note_on channel=7 note=30 velocity=0 time=0
note_on channel=3 note=40 velocity=127 time=0.00056818125
note_on channel=4 note=40 velocity=127 time=0
note_on channel=7 note=28 velocity=127 time=0
note_on channel=3 note=40 velocity=0 time=0.13579531875
note_on channel=4 note=40 velocity=0 time=0
note_on channel=7 note=28 velocity=0 time=0
note_on channel=3 note=41 velocity=127 time=0.00056818125
note_on channel=4 note=41 velocity=127 time=0
note_on channel=7 note=29 velocity=127 time=0
note_on channel=3 note=41 velocity=0 time=0.13579531875
note_on channel=4 note=41 velocity=0 time=0
note_on channel=7 note=29 velocity=0 time=0
note_on channel=3 note=47 velocity=127 time=0.00056818125
note_on channel=4 note=47 velocity=127 time=0
note_on channel=7 note=35 velocity=127 time=0
note_on channel=3 note=47 velocity=0 time=0.13579531875
note_on channel=4 note=47 velocity=0 time=0
note_on channel=7 note=35 velocity=0 time=0
note_on channel=3 note=40 velocity=127 time=0.00056818125
note_on channel=4 note=40 velocity=127 time=0
note_on channel=7 note=28 velocity=127 time=0
note_on channel=3 note=40 velocity=0 time=0.13579531875
note_on channel=4 note=40 velocity=0 time=0
note_on channel=7 note=28 velocity=0 time=0
note_on channel=3 note=41 velocity=127 time=0.00056818125
note_on channel=4 note=41 velocity=127 time=0
note_on channel=7 note=29 velocity=127 time=0
note_on channel=3 note=41 velocity=0 time=0.13579531875
note_on channel=4 note=41 velocity=0 time=0
note_on channel=7 note=29 velocity=0 time=0
note_on channel=3 note=48 velocity=127 time=0.00056818125
note_on channel=4 note=48 velocity=127 time=0
note_on channel=7 note=36 velocity=127 time=0
note_on channel=3 note=48 velocity=0 time=0.13579531875
note_on channel=4 note=48 velocity=0 time=0
note_on channel=7 note=36 velocity=0 time=0
note_on channel=3 note=40 velocity=127 time=0.00056818125
note_on channel=4 note=40 velocity=127 time=0
note_on channel=7 note=28 velocity=127 time=0
note_on channel=3 note=40 velocity=0 time=0.13579531875
note_on channel=4 note=40 velocity=0 time=0
note_on channel=7 note=28 velocity=0 time=0
note_on channel=3 note=41 velocity=127 time=0.00056818125
note_on channel=4 note=41 velocity=127 time=0
note_on channel=7 note=29 velocity=127 time=0
note_on channel=3 note=41 velocity=0 time=0.13579531875
note_on channel=4 note=41 velocity=0 time=0
note_on channel=7 note=29 velocity=0 time=0
note_on channel=3 note=48 velocity=127 time=0.00056818125
note_on channel=4 note=48 velocity=127 time=0
note_on channel=7 note=37 velocity=127 time=0
note_on channel=3 note=48 velocity=0 time=0.13579531875
note_on channel=4 note=48 velocity=0 time=0
note_on channel=7 note=37 velocity=0 time=0
note_on channel=3 note=40 velocity=127 time=0.00056818125
note_on channel=4 note=40 velocity=127 time=0
note_on channel=7 note=28 velocity=127 time=0
note_on channel=3 note=40 velocity=0 time=0.13579531875
note_on channel=4 note=40 velocity=0 time=0
note_on channel=7 note=28 velocity=0 time=0
note_on channel=3 note=41 velocity=127 time=0.00056818125
note_on channel=4 note=41 velocity=127 time=0
note_on channel=7 note=29 velocity=127 time=0
note_on channel=3 note=41 velocity=0 time=0.13579531875
note_on channel=4 note=41 velocity=0 time=0
note_on channel=7 note=29 velocity=0 time=0
note_on channel=3 note=48 velocity=127 time=0.00056818125
note_on channel=4 note=48 velocity=127 time=0
note_on channel=7 note=36 velocity=127 time=0
note_on channel=3 note=48 velocity=0 time=0.13579531875
note_on channel=4 note=48 velocity=0 time=0
note_on channel=7 note=36 velocity=0 time=0
note_on channel=3 note=40 velocity=127 time=0.00056818125
note_on channel=4 note=40 velocity=127 time=0
note_on channel=7 note=28 velocity=127 time=0
note_on channel=3 note=40 velocity=0 time=0.13579531875
note_on channel=4 note=40 velocity=0 time=0
note_on channel=7 note=28 velocity=0 time=0
note_on channel=3 note=41 velocity=127 time=0.00056818125
note_on channel=4 note=41 velocity=127 time=0
note_on channel=7 note=29 velocity=127 time=0
note_on channel=3 note=41 velocity=0 time=0.13579531875
note_on channel=4 note=41 velocity=0 time=0
note_on channel=7 note=29 velocity=0 time=0
note_on channel=3 note=47 velocity=127 time=0.00056818125
note_on channel=4 note=47 velocity=127 time=0
note_on channel=7 note=35 velocity=127 time=0
note_on channel=3 note=47 velocity=0 time=0.13579531875
note_on channel=4 note=47 velocity=0 time=0
note_on channel=7 note=35 velocity=0 time=0
note_on channel=7 note=35 velocity=127 time=0.00056818125
